REM DIRINDEX 1\2,1\3,1\4
REM DIRNAME cjc038,folder01,folder02,folder03
TITLE ""
FILE "DISC2Track28.mp3" MP3
  TRACK 01 AUDIO
    TITLE "0:"
    INDEX 01 00:00:00
  TRACK 02 AUDIO
    TITLE "4:cjc038_1729"
    INDEX 01 00:00:09
  TRACK 03 AUDIO
    TITLE "0:"
    INDEX 01 00:02:59
  TRACK 04 AUDIO
    TITLE "2:cjc038_1730"
    INDEX 01 00:04:25
  TRACK 05 AUDIO
    TITLE "0:"
    INDEX 01 00:05:52
  TRACK 06 AUDIO
    TITLE "3:cjc038_1731"
    INDEX 01 00:05:59
  TRACK 07 AUDIO
    TITLE "0:"
    INDEX 01 00:06:73
  TRACK 08 AUDIO
    TITLE "2:cjc038_1732"
    INDEX 01 00:07:56
  TRACK 09 AUDIO
    TITLE "0:"
    INDEX 01 00:09:49
  TRACK 10 AUDIO
    TITLE "3:cjc038_1733"
    INDEX 01 00:09:53
  TRACK 11 AUDIO
    TITLE "0:"
    INDEX 01 00:11:29
  TRACK 12 AUDIO
    TITLE "2:cjc038_1734"
    INDEX 01 00:12:20
  TRACK 13 AUDIO
    TITLE "0:"
    INDEX 01 00:14:43
  TRACK 14 AUDIO
    TITLE "3:cjc038_1735"
    INDEX 01 00:14:56
  TRACK 15 AUDIO
    TITLE "0:"
    INDEX 01 00:16:67
  TRACK 16 AUDIO
    TITLE "2:cjc038_1736"
    INDEX 01 00:17:45
  TRACK 17 AUDIO
    TITLE "0:"
    INDEX 01 00:22:62
  TRACK 18 AUDIO
    TITLE "2:cjc038_1737"
    INDEX 01 00:23:03
  TRACK 19 AUDIO
    TITLE "0:"
    INDEX 01 00:24:53
  TRACK 20 AUDIO
    TITLE "3:cjc038_1738"
    INDEX 01 00:24:61
  TRACK 21 AUDIO
    TITLE "0:"
    INDEX 01 00:29:70
  TRACK 22 AUDIO
    TITLE "3:cjc038_1739"
    INDEX 01 00:30:22
  TRACK 23 AUDIO
    TITLE "0:"
    INDEX 01 00:31:61
  TRACK 24 AUDIO
    TITLE "2:cjc038_1740"
    INDEX 01 00:33:34
  TRACK 25 AUDIO
    TITLE "0:"
    INDEX 01 00:36:40
  TRACK 26 AUDIO
    TITLE "3:cjc038_1741"
    INDEX 01 00:36:52
  TRACK 27 AUDIO
    TITLE "0:"
    INDEX 01 00:39:52
  TRACK 28 AUDIO
    TITLE "2:cjc038_1742"
    INDEX 01 00:40:32
  TRACK 29 AUDIO
    TITLE "0:"
    INDEX 01 00:43:11
  TRACK 30 AUDIO
    TITLE "3:cjc038_1743"
    INDEX 01 00:43:19
  TRACK 31 AUDIO
    TITLE "0:"
    INDEX 01 00:45:61
  TRACK 32 AUDIO
    TITLE "2:cjc038_1744"
    INDEX 01 00:47:38
  TRACK 33 AUDIO
    TITLE "0:"
    INDEX 01 00:49:67
  TRACK 34 AUDIO
    TITLE "3:cjc038_1745"
    INDEX 01 00:49:70
  TRACK 35 AUDIO
    TITLE "0:"
    INDEX 01 00:52:10
  TRACK 36 AUDIO
    TITLE "2:cjc038_1746"
    INDEX 01 00:52:71
  TRACK 37 AUDIO
    TITLE "0:"
    INDEX 01 00:55:04
  TRACK 38 AUDIO
    TITLE "3:cjc038_1747"
    INDEX 01 00:55:12
  TRACK 39 AUDIO
    TITLE "0:"
    INDEX 01 00:57:19
  TRACK 40 AUDIO
    TITLE "2:cjc038_1748"
    INDEX 01 00:57:70
  TRACK 41 AUDIO
    TITLE "0:"
    INDEX 01 01:00:25
  TRACK 42 AUDIO
    TITLE "3:cjc038_1749"
    INDEX 01 01:00:35
  TRACK 43 AUDIO
    TITLE "0:"
    INDEX 01 01:02:46
  TRACK 44 AUDIO
    TITLE "2:cjc038_1750"
    INDEX 01 01:04:33
  TRACK 45 AUDIO
    TITLE "0:"
    INDEX 01 01:07:04
  TRACK 46 AUDIO
    TITLE "3:cjc038_1751"
    INDEX 01 01:07:14
  TRACK 47 AUDIO
    TITLE "0:"
    INDEX 01 01:09:52
  TRACK 48 AUDIO
    TITLE "2:cjc038_1752"
    INDEX 01 01:10:31
  TRACK 49 AUDIO
    TITLE "0:"
    INDEX 01 01:12:58
  TRACK 50 AUDIO
    TITLE "3:cjc038_1753"
    INDEX 01 01:12:64
  TRACK 51 AUDIO
    TITLE "0:"
    INDEX 01 01:15:01
  TRACK 52 AUDIO
    TITLE "2:cjc038_1754"
    INDEX 01 01:15:62
  TRACK 53 AUDIO
    TITLE "0:"
    INDEX 01 01:19:25
  TRACK 54 AUDIO
    TITLE "3:cjc038_1755"
    INDEX 01 01:19:30
  TRACK 55 AUDIO
    TITLE "0:"
    INDEX 01 01:22:46
  TRACK 56 AUDIO
    TITLE "2:cjc038_1756"
    INDEX 01 01:24:28
  TRACK 57 AUDIO
    TITLE "0:"
    INDEX 01 01:27:65
  TRACK 58 AUDIO
    TITLE "3:cjc038_1757"
    INDEX 01 01:27:73
  TRACK 59 AUDIO
    TITLE "0:"
    INDEX 01 01:31:28
  TRACK 60 AUDIO
    TITLE "2:cjc038_1758"
    INDEX 01 01:32:02
  TRACK 61 AUDIO
    TITLE "0:"
    INDEX 01 01:37:28
  TRACK 62 AUDIO
    TITLE "3:cjc038_1759"
    INDEX 01 01:37:36
  TRACK 63 AUDIO
    TITLE "0:"
    INDEX 01 01:42:49
  TRACK 64 AUDIO
    TITLE "2:cjc038_1760"
    INDEX 01 01:43:33
  TRACK 65 AUDIO
    TITLE "0:"
    INDEX 01 01:45:67
  TRACK 66 AUDIO
    TITLE "3:cjc038_1761"
    INDEX 01 01:45:71
  TRACK 67 AUDIO
    TITLE "0:"
    INDEX 01 01:48:16
  TRACK 68 AUDIO
    TITLE "2:cjc038_1762"
    INDEX 01 01:49:69
  TRACK 69 AUDIO
    TITLE "0:"
    INDEX 01 01:53:16
  TRACK 70 AUDIO
    TITLE "3:cjc038_1763"
    INDEX 01 01:53:20
  TRACK 71 AUDIO
    TITLE "0:"
    INDEX 01 01:56:34
  TRACK 72 AUDIO
    TITLE "2:cjc038_1764"
    INDEX 01 01:57:11
  TRACK 73 AUDIO
    TITLE "0:"
    INDEX 01 02:01:52
  TRACK 74 AUDIO
    TITLE "3:cjc038_1765"
    INDEX 01 02:01:60
  TRACK 75 AUDIO
    TITLE "0:"
    INDEX 01 02:06:14
  TRACK 76 AUDIO
    TITLE "2:cjc038_1766"
    INDEX 01 02:06:73
  TRACK 77 AUDIO
    TITLE "0:"
    INDEX 01 02:14:49
  TRACK 78 AUDIO
    TITLE "2:cjc038_1767"
    INDEX 01 02:14:71
  TRACK 79 AUDIO
    TITLE "0:"
    INDEX 01 02:17:67
  TRACK 80 AUDIO
    TITLE "3:cjc038_1768"
    INDEX 01 02:18:02
  TRACK 81 AUDIO
    TITLE "0:"
    INDEX 01 02:25:41
  TRACK 82 AUDIO
    TITLE "3:cjc038_1769"
    INDEX 01 02:25:72
  TRACK 83 AUDIO
    TITLE "0:"
    INDEX 01 02:28:55
